<?xml version="1.0" encoding="utf-8"?>
<!-- Svg Vector Icons : http://www.onlinewebfonts.com/icon -->
<!DOCTYPE svg PUBLIC "-//W3C//DTD SVG 1.1//EN" "http://www.w3.org/Graphics/SVG/1.1/DTD/svg11.dtd">
<svg version="1.1" xmlns="http://www.w3.org/2000/svg" xmlns:xlink="http://www.w3.org/1999/xlink" x="0px" y="0px" viewBox="0 0 1000 1000" enable-background="new 0 0 1000 1000" xml:space="preserve">
<metadata> Svg Vector Icons : http://www.onlinewebfonts.com/icon </metadata>
<g><g transform="translate(0.000000,414.000000) scale(0.100000,-0.100000)"><path d="M100,2432.2v-669.9h248.8h248.8V-869.6v-2631.8H348.8H100v-660.4v-660.4h669.9h669.9v229.7v229.7h3569.7h3569.7v-229.7v-229.7h660.4H9900v660.4v660.4h-239.3h-239.3v2631.8v2631.8h239.3H9900v669.9v669.9h-660.4h-660.4V2882v-220.1H5009.6H1439.8V2882v220.1H769.9H100V2432.2z M8579.3,2020.7v-258.4h220.1h220.1V-869.6v-2631.8h-220.1h-220.1v-239.3v-239.3H5009.6H1439.8v239.3v239.3h-210.5h-210.5v2631.8v2631.8h210.5h210.5v258.4v258.4h3569.7h3569.7V2020.7z"/></g></g>
</svg>